:SAMPLES-PER-SECOND 30
:FULLY-SPECIFIED
:DEGREES
296
root  -3.8158 39.9742 -1.95515 -2.51537 -81.6477 0.52334
RightUpLeg  -17.8804 -7.22767 5.34154
RightLeg  13.7709 -4.27247 -0.796978
RightFoot  14.2508 -1.32279 6.38132
RightToes  7.56698e-010 0 -3.6325e-017
Spine  14.7078 -2.07025 -1.36522
Spine1  3.11863 -3.94977 7.8235
HEad  -9.24654 2.22423 -5.36957
LeftShoulder1  2.40475 -9.38283 -11.4955
LeftArm  -29.1236 -35.6515 -48.4164
LeftForeArm  22.3581 -41.096 -7.85241
LeftHand  -1.74375 -2.76935 24.7981
RightShoulder  1.95843 5.41467 15.199
RightArm  -29.6565 38.4896 45.1645
RightForeArm  10.4363 7.07168 7.13898
RightHand  -2.12116 7.42732 -19.3599
LeftUpLeg  -5.91842 -1.93883 -1.77862
LeftLeg  50.2573 5.36707 7.383
LeftFoot  19.4836 0.318609 -1.49677
LeftToes  -3.13779e-010 -2.47553e-011 -5.36621e-011
297
root  -3.49793 40.8653 -2.20754 -5.58835 -82.4768 4.40344
RightUpLeg  -13.1935 -1.0882 2.94097
RightLeg  7.77752 -2.09487 0.681167
RightFoot  11.9568 -2.82779 14.1662
RightToes  7.56698e-010 0 -3.6325e-017
Spine  15.5904 -0.543547 2.08991
Spine1  2.90213 -0.348267 0.494055
HEad  -9.04947 -6.83417 1.26492
LeftShoulder1  2.61116 -9.81418 -12.5489
LeftArm  -25.2385 -39.9173 -50.3012
LeftForeArm  14.3858 -14.5567 -3.87843
LeftHand  -1.76782 -2.3119 26.4704
RightShoulder  1.88924 5.63278 13.7862
RightArm  -28.5028 37.7824 45.3283
RightForeArm  9.68653 2.83644 6.59386
RightHand  -2.04292 7.41513 -18.6902
LeftUpLeg  -14.8746 -1.7425 -2.39587
LeftLeg  53.9278 8.12359 12.1883
LeftFoot  20.4922 -0.390534 0.976545
LeftToes  -3.13779e-010 -2.47553e-011 -5.36621e-011
298
root  -3.37979 41.4556 -2.46181 -9.65181 -83.4291 8.54867
RightUpLeg  -9.37019 1.23088 3.03413
RightLeg  11.6914 2.62177 -0.153015
RightFoot  4.28996 -2.01572 14.4385
RightToes  7.56698e-010 0 -3.6325e-017
Spine  16.1256 0.80203 4.00883
Spine1  3.61344 2.39922 -4.70422
HEad  -10.1301 -14.3736 4.70533
LeftShoulder1  2.74189 -9.80697 -13.6432
LeftArm  -29.5648 -42.0841 -50.1427
LeftForeArm  12.9653 4.21185 -4.48821
LeftHand  -1.45124 -1.53227 24.2244
RightShoulder  1.77444 5.68978 12.2548
RightArm  -29.028 38.8173 44.7712
RightForeArm  8.48734 3.57202 6.61884
RightHand  -2.23348 7.95583 -19.5645
LeftUpLeg  -21.3859 -3.5496 -2.9635
LeftLeg  52.3492 8.68087 12.3715
LeftFoot  16.3302 -0.501916 1.56838
LeftToes  -3.13779e-010 -2.47553e-011 -5.36621e-011
299
root  -3.40619 41.4949 -2.78248 -9.36461 -82.1029 7.3361
RightUpLeg  -4.27343 5.29681 4.05164
RightLeg  20.483 -1.74163 -1.02365
RightFoot  -2.1926 -0.778945 9.776
RightToes  7.56698e-010 0 -3.6325e-017
Spine  16.3711 1.12012 3.82926
Spine1  4.78 2.9934 -5.83436
HEad  -11.4708 -19.8435 6.51275
LeftShoulder1  2.75378 -9.69994 -13.9254
LeftArm  -26.5007 -38.7918 -50.6147
LeftForeArm  9.97982 7.09877 -5.10574
LeftHand  -1.21233 -1.2656 21.1874
RightShoulder  1.68145 5.39078 11.8234
RightArm  -30.0261 40.1153 43.789
RightForeArm  5.57341 10.7695 6.22886
RightHand  -2.54512 8.9111 -20.7823
LeftUpLeg  -25.7703 -6.36639 -3.11796
LeftLeg  47.3651 6.96207 8.48934
LeftFoot  13.7379 0.27768 -1.58393
LeftToes  -3.13779e-010 -2.47553e-011 -5.36621e-011
300
root  -3.67 41.0178 -3.12011 -8.8569 -78.9193 5.68837
RightUpLeg  3.06057 3.4043 6.53011
RightLeg  25.7475 -5.40767 -3.01532
RightFoot  -3.32255 -0.643512 8.81649
RightToes  7.56698e-010 0 -3.6325e-017
Spine  15.3508 0.781815 2.37239
Spine1  6.05422 2.34908 -5.40281
HEad  -11.658 -24.3701 8.04827
LeftShoulder1  2.91053 -9.8383 -14.9711
LeftArm  -25.4722 -30.5939 -49.8622
LeftForeArm  11.7057 6.96908 -5.96726
LeftHand  -1.14034 -1.21403 20.0928
RightShoulder  1.67336 5.07227 12.4958
RightArm  -29.5158 38.7735 43.6198
RightForeArm  0.704696 26.1311 5.50302
RightHand  -2.67885 9.71992 -20.7091
LeftUpLeg  -28.3652 -6.06849 -5.21298
LeftLeg  41.7568 6.01737 6.06122
LeftFoot  16.4978 1.63138 -6.89844
LeftToes  -3.13779e-010 -2.47553e-011 -5.36621e-011
301
root  -4.21234 40.2026 -3.38221 -6.40842 -76.0019 3.31059
RightUpLeg  10.0951 -0.447729 9.09109
RightLeg  25.0119 -7.80654 -4.17245
RightFoot  -2.18654 -0.860812 10.6235
RightToes  7.56698e-010 0 -3.6325e-017
Spine  12.3114 0.646377 2.44565
Spine1  6.72718 2.47798 -6.80397
HEad  -9.28217 -29.5859 9.27559
LeftShoulder1  3.21865 -9.96472 -17.2527
LeftArm  -25.042 -21.677 -47.4787
LeftForeArm  11.0397 6.41783 -6.46891
LeftHand  -1.15396 -1.22166 20.297
RightShoulder  1.69908 4.84066 13.4393
RightArm  -37.9964 33.4861 43.7426
RightForeArm  7.69426 46.5918 11.551
RightHand  -2.41242 9.33462 -19.1731
LeftUpLeg  -29.4955 -1.29523 -9.12855
LeftLeg  37.6468 8.14306 7.04667
LeftFoot  20.5954 2.87755 -10.5786
LeftToes  -3.13779e-010 -2.47553e-011 -5.36621e-011
302
root  -4.79899 39.0549 -3.51608 -1.29982 -74.7011 -0.346148
RightUpLeg  14.3876 -3.30929 11.2108
RightLeg  21.7156 -8.10051 -3.76942
RightFoot  -4.34659 -0.616341 9.31513
RightToes  7.56698e-010 0 -3.6325e-017
Spine  8.4642 1.44998 4.93908
Spine1  6.1723 4.34088 -10.8608
HEad  -5.34288 -35.625 9.89654
LeftShoulder1  3.38331 -9.74373 -19.0236
LeftArm  -25.2202 -15.0775 -45.8997
LeftForeArm  8.20971 2.72894 -6.92548
LeftHand  -1.22694 -1.53328 20.6094
RightShoulder  1.68103 4.46446 14.2532
RightArm  -43.417 27.0575 42.8298
RightForeArm  20.1727 66.8598 26.2343
RightHand  -1.97488 7.61671 -17.8325
LeftUpLeg  -30.3676 3.54643 -12.1305
LeftLeg  37.0912 10.3247 8.63979
LeftFoot  17.808 2.51312 -9.98737
LeftToes  -3.13779e-010 -2.47553e-011 -5.36621e-011
303
root  -5.10028 37.684 -3.54539 2.53829 -74.2691 -3.17468
RightUpLeg  16.108 -3.7671 12.6301
RightLeg  20.6674 -6.2295 -2.77985
RightFoot  -11.5285 -0.0848681 5.25476
RightToes  7.56698e-010 0 -3.6325e-017
Spine  6.52314 2.71302 7.77464
Spine1  5.35696 6.70866 -15.1027
HEad  -3.90199 -40.6342 10.8106
LeftShoulder1  3.38831 -9.55079 -19.4714
LeftArm  -27.7461 -11.2975 -46.7453
LeftForeArm  7.63718 -2.13633 -6.60405
LeftHand  -1.32171 -1.88314 21.1273
RightShoulder  1.61025 3.98241 14.7064
RightArm  -49.2564 22.9003 39.0677
RightForeArm  62.9501 78.9862 72.3209
RightHand  -1.63107 5.41621 -17.6989
LeftUpLeg  -30.9136 4.02758 -13.2969
LeftLeg  39.6543 9.904 9.05855
LeftFoot  7.47011 0.636045 -3.60781
LeftToes  -3.13779e-010 -2.47553e-011 -5.36621e-011
304
root  -5.17369 36.3531 -3.58791 1.46437 -73.0345 -2.96601
RightUpLeg  17.1247 -2.89171 13.9337
RightLeg  22.9908 -5.50766 -2.80147
RightFoot  -20.4779 0.0162672 1.83319
RightToes  7.56698e-010 0 -3.6325e-017
Spine  6.86267 2.95282 8.31668
Spine1  6.37489 7.67372 -16.383
HEad  -7.77761 -42.8974 13.5161
LeftShoulder1  3.53036 -9.7583 -20.1803
LeftArm  -31.061 -10.6545 -48.127
LeftForeArm  8.72472 -7.47643 -6.16033
LeftHand  -1.40258 -2.0347 21.9412
RightShoulder  1.51785 3.60974 14.5202
RightArm  -55.4953 21.6805 34.3401
RightForeArm  119.128 75.8861 132.264
RightHand  -1.36247 3.51623 -17.8733
LeftUpLeg  -30.6015 1.69709 -14.2566
LeftLeg  43.758 9.48687 9.99814
LeftFoot  -3.93878 -0.354751 5.24005
LeftToes  -3.13779e-010 -2.47553e-011 -5.36621e-011
305
root  -5.2228 35.5568 -3.65893 -1.89051 -71.4086 -1.00424
RightUpLeg  18.2552 -2.59947 15.1337
RightLeg  25.2078 -8.11301 -4.36241
RightFoot  -26.2296 -0.15245 0.115725
RightToes  7.56698e-010 0 -3.6325e-017
Spine  7.21221 2.22667 6.81123
Spine1  9.05792 7.2208 -15.3322
HEad  -13.6794 -42.6649 17.3753
LeftShoulder1  3.80787 -10.0534 -21.7525
LeftArm  -30.879 -12.7409 -48.2591
LeftForeArm  7.60484 -12.5447 -6.1718
LeftHand  -1.4725 -2.06916 22.8977
RightShoulder  1.45996 3.4529 14.1373
RightArm  -59.0201 21.1335 32.8263
RightForeArm  131.42 70.7344 147.206
RightHand  -1.23092 2.64991 -17.8689
LeftUpLeg  -30.3983 0.948985 -15.7157
LeftLeg  46.9311 9.36829 10.9748
LeftFoot  -8.93784 -0.161234 9.11187
LeftToes  -3.13779e-010 -2.47553e-011 -5.36621e-011
